<svg width="32" height="36" viewBox="0 0 32 36" fill="none" xmlns="http://www.w3.org/2000/svg">
<path d="M6 36C4.9 36 3.95833 35.6083 3.175 34.825C2.39167 34.0417 2 33.1 2 32V6C1.43333 6 0.958333 5.80833 0.575 5.425C0.191667 5.04167 0 4.56667 0 4C0 3.43333 0.191667 2.95833 0.575 2.575C0.958333 2.19167 1.43333 2 2 2H10C10 1.43333 10.1917 0.958333 10.575 0.575C10.9583 0.191667 11.4333 0 12 0H20C20.5667 0 21.0417 0.191667 21.425 0.575C21.8083 0.958333 22 1.43333 22 2H30C30.5667 2 31.0417 2.19167 31.425 2.575C31.8083 2.95833 32 3.43333 32 4C32 4.56667 31.8083 5.04167 31.425 5.425C31.0417 5.80833 30.5667 6 30 6V32C30 33.1 29.6083 34.0417 28.825 34.825C28.0417 35.6083 27.1 36 26 36H6ZM26 6H6V32H26V6ZM10 28H14V10H10V28ZM18 28H22V10H18V28Z" fill="#F33278"/>
</svg>
